<svg width="71" height="63" viewBox="0 0 71 63" fill="none" xmlns="http://www.w3.org/2000/svg">
<path d="M0.832031 18.0469C0.832031 8.3819 8.66705 0.546875 18.332 0.546875V0.546875V62.3163V62.3163C8.66705 62.3163 0.832031 54.4813 0.832031 44.8163V18.0469Z" fill="#0F254C"/>
<rect x="18.332" y="0.546936" width="17.5" height="61.7694" fill="#235A90"/>
<rect x="35.832" y="0.546936" width="17.5" height="61.7694" fill="#4F94CD"/>
<path d="M53.332 0.546936V0.546936C62.997 0.546936 70.832 8.38195 70.832 18.0469V44.8164C70.832 54.4813 62.997 62.3164 53.332 62.3164V62.3164V0.546936Z" fill="#49A2EC"/>
<path d="M22.5889 45.6095C24.5599 46.1289 29.0615 47.1038 31.2989 46.8481C33.5364 46.5924 36.6794 45.9158 37.9713 45.6095" stroke="white" stroke-width="3"/>
<path d="M19.9535 56.7189C18.7549 55.7467 16.3577 52.9952 16.3577 49.7669C16.3577 45.7315 20.8325 41.7361 17.4364 37.9404C15.7811 36.3633 14.6828 35.7514 13.9931 35.493C11.9293 34.7197 13.9838 31.8336 15.7764 30.5516C18.3522 28.7096 22.3562 27.8043 24.828 27.5523C26.1465 27.4178 31.2207 27.3525 32.6191 27.5523C33.9565 27.7434 35.1914 27.9437 36.3348 28.155M42.0083 29.51C40.4036 29.0102 38.5391 28.5623 36.3348 28.155M47.522 13.9278L47.2097 14.0482C45.2097 14.8193 43.2573 15.7879 42.0005 17.5243C41.462 18.2684 40.989 19.0188 40.6898 19.5214C39.6672 21.2395 37.4802 25.6101 36.3348 28.155M40.6898 55.5603C41.5822 54.4282 43.5346 51.6847 44.2058 49.7669C44.8771 47.8491 41.5688 42.8947 42.0083 41.8559L43.5266 36.4621" stroke="white" stroke-width="3"/>
<path d="M48.9589 10.5407C48.9589 7.86752 48.8704 8.94536 49.1283 7.77535C49.3019 6.98747 50.1318 6.27641 50.9058 5.78787C51.2359 5.57951 51.5788 5.92404 51.4059 6.27404V6.27404C51.2299 6.63037 51.6018 7.00896 51.9612 6.83925L52.754 6.46488C53.2253 6.24234 53.6255 6.56791 53.3406 7.00433C53.2986 7.0687 53.2526 7.13535 53.2022 7.20408C52.9523 7.54499 52.5087 7.9324 52.0806 8.26217C51.7608 8.50846 51.8598 9.04303 52.2536 9.13163V9.13163C52.6074 9.21124 53.5437 9.37873 53.8744 9.52744C54.3106 9.72354 54.8301 10.0333 55.1679 10.4279C55.8278 11.1989 56.6521 12.4344 57.6371 13.2691C57.7284 13.3465 57.8083 13.4366 57.8827 13.5303C58.1969 13.9264 58.8698 14.6323 58.2299 15.2902C57.6113 15.9261 57.9062 17.922 56.4589 18.0407C55.0116 18.1594 52.6679 16.9279 51.1865 16.9279C50.2993 16.9279 48.0462 19.1392 47.4808 22.129C46.6679 26.4279 46.1677 27.1031 46.168 27.9279" stroke="white" stroke-width="3"/>
</svg>
